<svg id="visual" viewBox="0 0 960 540" width="960" height="540" xmlns="http://www.w3.org/2000/svg" xmlns:xlink="http://www.w3.org/1999/xlink" version="1.1"><rect x="0" y="0" width="960" height="540" fill="#001220"></rect><defs><linearGradient id="grad1_0" x1="43.8%" y1="100%" x2="100%" y2="0%"><stop offset="14.444444444444446%" stop-color="#001220" stop-opacity="1"></stop><stop offset="85.55555555555554%" stop-color="#001220" stop-opacity="1"></stop></linearGradient></defs><defs><linearGradient id="grad2_0" x1="0%" y1="100%" x2="56.3%" y2="0%"><stop offset="14.444444444444446%" stop-color="#001220" stop-opacity="1"></stop><stop offset="85.55555555555554%" stop-color="#001220" stop-opacity="1"></stop></linearGradient></defs><g transform="translate(960, 540)"><path d="M-405 0C-401.7 -83.4 -398.3 -166.8 -350.7 -202.5C-303.2 -238.2 -211.3 -226.2 -145.5 -252C-79.7 -277.8 -39.8 -341.4 0 -405L0 0Z" fill="#FBAE3C"></path></g><g transform="translate(0, 0)"><path d="M405 0C400.9 82.1 396.9 164.3 350.7 202.5C304.6 240.7 216.5 235.1 151 261.5C85.5 288 42.8 346.5 0 405L0 0Z" fill="#FBAE3C"></path></g></svg>