<svg id="visual" viewBox="0 0 960 540" width="960" height="540" xmlns="http://www.w3.org/2000/svg" xmlns:xlink="http://www.w3.org/1999/xlink" version="1.1"><g stroke-width="1" stroke-linejoin="bevel"><path d="M504 260L496 254L490 257Z" fill="#297ea6" stroke="#297ea6"></path><path d="M504 260L530 258L496 254Z" fill="#081a28" stroke="#081a28"></path><path d="M520 330L536 260L530 258Z" fill="#246688" stroke="#246688"></path><path d="M530 258L498 216L496 254Z" fill="#246688" stroke="#246688"></path><path d="M496 254L498 216L490 257Z" fill="#15384f" stroke="#15384f"></path><path d="M573 202L498 216L530 258Z" fill="#246688" stroke="#246688"></path><path d="M434 266L438 273L490 257Z" fill="#297ea6" stroke="#297ea6"></path><path d="M490 257L478 330L504 260Z" fill="#112e42" stroke="#112e42"></path><path d="M504 260L520 330L530 258Z" fill="#0c2435" stroke="#0c2435"></path><path d="M431 239L434 266L490 257Z" fill="#081a28" stroke="#081a28"></path><path d="M398 283L444 303L438 273Z" fill="#081a28" stroke="#081a28"></path><path d="M438 273L444 303L490 257Z" fill="#112e42" stroke="#112e42"></path><path d="M498 216L431 239L490 257Z" fill="#00101c" stroke="#00101c"></path><path d="M444 303L478 330L490 257Z" fill="#081a28" stroke="#081a28"></path><path d="M478 330L520 330L504 260Z" fill="#1d4e6b" stroke="#1d4e6b"></path><path d="M520 330L558 326L536 260Z" fill="#277297" stroke="#277297"></path><path d="M573 202L484 173L498 216Z" fill="#277297" stroke="#277297"></path><path d="M498 216L439 180L431 239Z" fill="#00101c" stroke="#00101c"></path><path d="M594 272L573 202L536 260Z" fill="#15384f" stroke="#15384f"></path><path d="M536 260L573 202L530 258Z" fill="#081a28" stroke="#081a28"></path><path d="M593 298L594 272L536 260Z" fill="#00101c" stroke="#00101c"></path><path d="M484 173L439 180L498 216Z" fill="#00101c" stroke="#00101c"></path><path d="M398 283L431 338L444 303Z" fill="#0c2435" stroke="#0c2435"></path><path d="M444 303L431 338L478 330Z" fill="#0c2435" stroke="#0c2435"></path><path d="M533 375L537 370L520 330Z" fill="#246688" stroke="#246688"></path><path d="M398 283L438 273L434 266Z" fill="#277297" stroke="#277297"></path><path d="M367 264L398 283L431 239Z" fill="#0c2435" stroke="#0c2435"></path><path d="M431 239L398 283L434 266Z" fill="#19435d" stroke="#19435d"></path><path d="M558 326L593 298L536 260Z" fill="#081a28" stroke="#081a28"></path><path d="M439 180L431 182L431 239Z" fill="#277297" stroke="#277297"></path><path d="M558 326L586 314L593 298Z" fill="#081a28" stroke="#081a28"></path><path d="M533 375L520 330L478 330Z" fill="#081a28" stroke="#081a28"></path><path d="M520 330L544 370L558 326Z" fill="#081a28" stroke="#081a28"></path><path d="M558 326L631 357L586 314Z" fill="#19435d" stroke="#19435d"></path><path d="M537 370L544 370L520 330Z" fill="#112e42" stroke="#112e42"></path><path d="M472 400L533 375L478 330Z" fill="#00101c" stroke="#00101c"></path><path d="M537 370L533 375L544 370Z" fill="#205a7a" stroke="#205a7a"></path><path d="M344 240L367 264L431 239Z" fill="#205a7a" stroke="#205a7a"></path><path d="M398 283L358 303L431 338Z" fill="#00101c" stroke="#00101c"></path><path d="M562 98L471 134L484 173Z" fill="#277297" stroke="#277297"></path><path d="M484 173L471 134L439 180Z" fill="#112e42" stroke="#112e42"></path><path d="M439 180L404 151L431 182Z" fill="#112e42" stroke="#112e42"></path><path d="M593 298L630 274L594 272Z" fill="#1d4e6b" stroke="#1d4e6b"></path><path d="M594 272L642 196L573 202Z" fill="#1d4e6b" stroke="#1d4e6b"></path><path d="M631 357L630 274L593 298Z" fill="#15384f" stroke="#15384f"></path><path d="M631 357L593 298L586 314Z" fill="#112e42" stroke="#112e42"></path><path d="M419 429L472 400L431 338Z" fill="#112e42" stroke="#112e42"></path><path d="M431 338L472 400L478 330Z" fill="#00101c" stroke="#00101c"></path><path d="M533 375L544 398L544 370Z" fill="#297ea6" stroke="#297ea6"></path><path d="M544 370L631 357L558 326Z" fill="#081a28" stroke="#081a28"></path><path d="M472 400L544 398L533 375Z" fill="#1d4e6b" stroke="#1d4e6b"></path><path d="M367 264L358 303L398 283Z" fill="#277297" stroke="#277297"></path><path d="M450 115L404 151L439 180Z" fill="#205a7a" stroke="#205a7a"></path><path d="M431 182L344 240L431 239Z" fill="#277297" stroke="#277297"></path><path d="M404 151L344 240L431 182Z" fill="#205a7a" stroke="#205a7a"></path><path d="M367 264L330 274L358 303Z" fill="#112e42" stroke="#112e42"></path><path d="M492 79L450 115L471 134Z" fill="#0c2435" stroke="#0c2435"></path><path d="M471 134L450 115L439 180Z" fill="#1d4e6b" stroke="#1d4e6b"></path><path d="M630 274L642 196L594 272Z" fill="#297ea6" stroke="#297ea6"></path><path d="M573 202L562 98L484 173Z" fill="#277297" stroke="#277297"></path><path d="M642 196L637 179L573 202Z" fill="#246688" stroke="#246688"></path><path d="M616 413L631 357L544 370Z" fill="#19435d" stroke="#19435d"></path><path d="M630 274L663 234L642 196Z" fill="#00101c" stroke="#00101c"></path><path d="M633 160L599 133L573 202Z" fill="#0c2435" stroke="#0c2435"></path><path d="M344 240L330 274L367 264Z" fill="#00101c" stroke="#00101c"></path><path d="M678 290L663 234L630 274Z" fill="#277297" stroke="#277297"></path><path d="M642 196L666 165L637 179Z" fill="#15384f" stroke="#15384f"></path><path d="M666 165L633 160L637 179Z" fill="#081a28" stroke="#081a28"></path><path d="M637 179L633 160L573 202Z" fill="#1d4e6b" stroke="#1d4e6b"></path><path d="M284 248L324 281L330 274Z" fill="#246688" stroke="#246688"></path><path d="M330 274L324 281L358 303Z" fill="#19435d" stroke="#19435d"></path><path d="M358 303L357 366L431 338Z" fill="#1d4e6b" stroke="#1d4e6b"></path><path d="M325 335L357 366L358 303Z" fill="#19435d" stroke="#19435d"></path><path d="M612 105L562 98L599 133Z" fill="#0c2435" stroke="#0c2435"></path><path d="M599 133L562 98L573 202Z" fill="#277297" stroke="#277297"></path><path d="M344 395L361 381L357 366Z" fill="#1d4e6b" stroke="#1d4e6b"></path><path d="M357 366L361 381L431 338Z" fill="#19435d" stroke="#19435d"></path><path d="M562 98L492 79L471 134Z" fill="#297ea6" stroke="#297ea6"></path><path d="M358 124L324 183L404 151Z" fill="#246688" stroke="#246688"></path><path d="M631 357L678 290L630 274Z" fill="#112e42" stroke="#112e42"></path><path d="M384 418L419 429L431 338Z" fill="#112e42" stroke="#112e42"></path><path d="M472 400L491 471L544 398Z" fill="#0c2435" stroke="#0c2435"></path><path d="M324 281L325 335L358 303Z" fill="#246688" stroke="#246688"></path><path d="M358 124L404 151L407 60Z" fill="#19435d" stroke="#19435d"></path><path d="M404 151L324 183L344 240Z" fill="#081a28" stroke="#081a28"></path><path d="M344 240L284 248L330 274Z" fill="#205a7a" stroke="#205a7a"></path><path d="M361 381L384 418L431 338Z" fill="#277297" stroke="#277297"></path><path d="M344 395L384 418L361 381Z" fill="#081a28" stroke="#081a28"></path><path d="M544 398L616 413L544 370Z" fill="#246688" stroke="#246688"></path><path d="M703 333L700 289L678 290Z" fill="#1d4e6b" stroke="#1d4e6b"></path><path d="M604 455L616 413L544 398Z" fill="#112e42" stroke="#112e42"></path><path d="M621 103L599 133L633 160Z" fill="#297ea6" stroke="#297ea6"></path><path d="M621 103L612 105L599 133Z" fill="#15384f" stroke="#15384f"></path><path d="M562 98L530 66L492 79Z" fill="#1d4e6b" stroke="#1d4e6b"></path><path d="M407 60L404 151L450 115Z" fill="#277297" stroke="#277297"></path><path d="M683 202L666 165L642 196Z" fill="#1d4e6b" stroke="#1d4e6b"></path><path d="M683 202L642 196L663 234Z" fill="#19435d" stroke="#19435d"></path><path d="M691 211L683 202L663 234Z" fill="#081a28" stroke="#081a28"></path><path d="M606 70L530 66L562 98Z" fill="#297ea6" stroke="#297ea6"></path><path d="M492 79L437 66L450 115Z" fill="#205a7a" stroke="#205a7a"></path><path d="M616 413L633 409L631 357Z" fill="#081a28" stroke="#081a28"></path><path d="M700 289L691 211L663 234Z" fill="#19435d" stroke="#19435d"></path><path d="M683 202L725 176L666 165Z" fill="#19435d" stroke="#19435d"></path><path d="M666 165L621 103L633 160Z" fill="#1d4e6b" stroke="#1d4e6b"></path><path d="M612 105L606 70L562 98Z" fill="#00101c" stroke="#00101c"></path><path d="M325 335L344 395L357 366Z" fill="#205a7a" stroke="#205a7a"></path><path d="M444 0L437 66L492 79Z" fill="#15384f" stroke="#15384f"></path><path d="M687 355L678 290L631 357Z" fill="#277297" stroke="#277297"></path><path d="M678 290L700 289L663 234Z" fill="#205a7a" stroke="#205a7a"></path><path d="M457 520L491 471L419 429Z" fill="#0c2435" stroke="#0c2435"></path><path d="M419 429L491 471L472 400Z" fill="#277297" stroke="#277297"></path><path d="M616 413L604 455L633 409Z" fill="#1d4e6b" stroke="#1d4e6b"></path><path d="M672 404L687 355L631 357Z" fill="#112e42" stroke="#112e42"></path><path d="M257 145L284 248L324 183Z" fill="#297ea6" stroke="#297ea6"></path><path d="M324 183L284 248L344 240Z" fill="#205a7a" stroke="#205a7a"></path><path d="M324 281L279 274L325 335Z" fill="#1d4e6b" stroke="#1d4e6b"></path><path d="M302 413L335 422L344 395Z" fill="#112e42" stroke="#112e42"></path><path d="M284 248L279 274L324 281Z" fill="#297ea6" stroke="#297ea6"></path><path d="M687 355L703 333L678 290Z" fill="#112e42" stroke="#112e42"></path><path d="M437 66L407 60L450 115Z" fill="#15384f" stroke="#15384f"></path><path d="M389 33L407 60L433 0Z" fill="#112e42" stroke="#112e42"></path><path d="M511 493L604 455L544 398Z" fill="#112e42" stroke="#112e42"></path><path d="M633 409L672 404L631 357Z" fill="#0c2435" stroke="#0c2435"></path><path d="M633 84L606 70L621 103Z" fill="#1d4e6b" stroke="#1d4e6b"></path><path d="M621 103L606 70L612 105Z" fill="#277297" stroke="#277297"></path><path d="M633 83L633 84L645 80Z" fill="#297ea6" stroke="#297ea6"></path><path d="M645 80L633 84L621 103Z" fill="#0c2435" stroke="#0c2435"></path><path d="M645 80L621 103L666 165Z" fill="#0c2435" stroke="#0c2435"></path><path d="M633 84L633 83L606 70Z" fill="#00101c" stroke="#00101c"></path><path d="M697 443L672 404L633 409Z" fill="#277297" stroke="#277297"></path><path d="M687 355L726 362L703 333Z" fill="#205a7a" stroke="#205a7a"></path><path d="M335 422L373 452L384 418Z" fill="#0c2435" stroke="#0c2435"></path><path d="M384 418L373 452L419 429Z" fill="#19435d" stroke="#19435d"></path><path d="M335 422L384 418L344 395Z" fill="#112e42" stroke="#112e42"></path><path d="M302 413L344 395L325 335Z" fill="#15384f" stroke="#15384f"></path><path d="M457 520L511 493L491 471Z" fill="#205a7a" stroke="#205a7a"></path><path d="M491 471L511 493L544 398Z" fill="#00101c" stroke="#00101c"></path><path d="M340 87L335 95L358 124Z" fill="#15384f" stroke="#15384f"></path><path d="M358 124L275 138L324 183Z" fill="#1d4e6b" stroke="#1d4e6b"></path><path d="M407 60L340 87L358 124Z" fill="#15384f" stroke="#15384f"></path><path d="M340 87L333 93L335 95Z" fill="#15384f" stroke="#15384f"></path><path d="M335 95L275 138L358 124Z" fill="#205a7a" stroke="#205a7a"></path><path d="M710 80L645 80L666 165Z" fill="#19435d" stroke="#19435d"></path><path d="M633 83L645 80L606 70Z" fill="#15384f" stroke="#15384f"></path><path d="M335 422L359 460L373 452Z" fill="#15384f" stroke="#15384f"></path><path d="M408 521L457 520L419 429Z" fill="#297ea6" stroke="#297ea6"></path><path d="M741 172L725 176L791 220Z" fill="#15384f" stroke="#15384f"></path><path d="M691 211L725 176L683 202Z" fill="#205a7a" stroke="#205a7a"></path><path d="M743 299L691 211L700 289Z" fill="#112e42" stroke="#112e42"></path><path d="M279 410L302 413L325 335Z" fill="#15384f" stroke="#15384f"></path><path d="M335 422L314 471L359 460Z" fill="#277297" stroke="#277297"></path><path d="M762 323L743 299L703 333Z" fill="#081a28" stroke="#081a28"></path><path d="M703 333L743 299L700 289Z" fill="#0c2435" stroke="#0c2435"></path><path d="M672 404L726 362L687 355Z" fill="#112e42" stroke="#112e42"></path><path d="M407 60L389 33L340 87Z" fill="#00101c" stroke="#00101c"></path><path d="M239 109L275 138L333 93Z" fill="#246688" stroke="#246688"></path><path d="M433 0L407 60L437 66Z" fill="#15384f" stroke="#15384f"></path><path d="M444 0L492 79L530 66Z" fill="#277297" stroke="#277297"></path><path d="M257 145L275 138L253 135Z" fill="#081a28" stroke="#081a28"></path><path d="M333 93L275 138L335 95Z" fill="#297ea6" stroke="#297ea6"></path><path d="M234 289L244 315L279 274Z" fill="#277297" stroke="#277297"></path><path d="M724 140L723 142L752 158Z" fill="#246688" stroke="#246688"></path><path d="M725 176L723 142L666 165Z" fill="#1d4e6b" stroke="#1d4e6b"></path><path d="M234 289L279 274L284 248Z" fill="#15384f" stroke="#15384f"></path><path d="M279 274L244 315L325 335Z" fill="#297ea6" stroke="#297ea6"></path><path d="M741 172L723 142L725 176Z" fill="#00101c" stroke="#00101c"></path><path d="M723 142L724 140L666 165Z" fill="#205a7a" stroke="#205a7a"></path><path d="M791 220L725 176L691 211Z" fill="#0c2435" stroke="#0c2435"></path><path d="M408 521L419 429L373 452Z" fill="#15384f" stroke="#15384f"></path><path d="M511 493L545 522L604 455Z" fill="#0c2435" stroke="#0c2435"></path><path d="M726 362L738 362L703 333Z" fill="#0c2435" stroke="#0c2435"></path><path d="M743 441L738 362L726 362Z" fill="#19435d" stroke="#19435d"></path><path d="M697 443L726 362L672 404Z" fill="#112e42" stroke="#112e42"></path><path d="M245 354L279 410L325 335Z" fill="#205a7a" stroke="#205a7a"></path><path d="M302 413L314 471L335 422Z" fill="#15384f" stroke="#15384f"></path><path d="M204 194L234 289L284 248Z" fill="#1d4e6b" stroke="#1d4e6b"></path><path d="M244 315L245 354L325 335Z" fill="#205a7a" stroke="#205a7a"></path><path d="M511 528L545 522L511 493Z" fill="#00101c" stroke="#00101c"></path><path d="M604 455L697 443L633 409Z" fill="#112e42" stroke="#112e42"></path><path d="M253 135L275 138L239 109Z" fill="#246688" stroke="#246688"></path><path d="M275 138L257 145L324 183Z" fill="#19435d" stroke="#19435d"></path><path d="M457 520L511 528L511 493Z" fill="#00101c" stroke="#00101c"></path><path d="M553 0L530 66L606 70Z" fill="#1d4e6b" stroke="#1d4e6b"></path><path d="M553 0L444 0L530 66Z" fill="#15384f" stroke="#15384f"></path><path d="M218 355L245 354L244 315Z" fill="#15384f" stroke="#15384f"></path><path d="M656 22L606 70L645 80Z" fill="#00101c" stroke="#00101c"></path><path d="M628 0L553 0L606 70Z" fill="#246688" stroke="#246688"></path><path d="M444 0L433 0L437 66Z" fill="#205a7a" stroke="#205a7a"></path><path d="M681 540L697 443L604 455Z" fill="#1d4e6b" stroke="#1d4e6b"></path><path d="M785 302L762 323L785 341Z" fill="#19435d" stroke="#19435d"></path><path d="M738 362L762 323L703 333Z" fill="#277297" stroke="#277297"></path><path d="M791 220L754 170L741 172Z" fill="#205a7a" stroke="#205a7a"></path><path d="M359 460L408 521L373 452Z" fill="#0c2435" stroke="#0c2435"></path><path d="M457 520L501 540L511 528Z" fill="#19435d" stroke="#19435d"></path><path d="M381 537L408 521L359 460Z" fill="#19435d" stroke="#19435d"></path><path d="M741 172L752 158L723 142Z" fill="#1d4e6b" stroke="#1d4e6b"></path><path d="M791 220L691 211L743 299Z" fill="#081a28" stroke="#081a28"></path><path d="M328 36L333 93L340 87Z" fill="#277297" stroke="#277297"></path><path d="M257 145L204 194L284 248Z" fill="#00101c" stroke="#00101c"></path><path d="M754 170L752 158L741 172Z" fill="#112e42" stroke="#112e42"></path><path d="M709 69L669 41L645 80Z" fill="#0c2435" stroke="#0c2435"></path><path d="M287 475L302 413L254 441Z" fill="#246688" stroke="#246688"></path><path d="M287 475L314 471L302 413Z" fill="#081a28" stroke="#081a28"></path><path d="M433 0L405 0L389 33Z" fill="#15384f" stroke="#15384f"></path><path d="M389 33L328 36L340 87Z" fill="#00101c" stroke="#00101c"></path><path d="M511 528L501 540L545 522Z" fill="#081a28" stroke="#081a28"></path><path d="M480 550L501 540L457 520Z" fill="#0c2435" stroke="#0c2435"></path><path d="M710 80L666 165L724 140Z" fill="#0c2435" stroke="#0c2435"></path><path d="M717 85L710 80L724 140Z" fill="#15384f" stroke="#15384f"></path><path d="M335 6L328 36L389 33Z" fill="#112e42" stroke="#112e42"></path><path d="M408 521L446 540L457 520Z" fill="#19435d" stroke="#19435d"></path><path d="M748 119L717 85L724 140Z" fill="#205a7a" stroke="#205a7a"></path><path d="M710 80L709 69L645 80Z" fill="#246688" stroke="#246688"></path><path d="M405 0L386 0L389 33Z" fill="#00101c" stroke="#00101c"></path><path d="M717 85L709 69L710 80Z" fill="#0c2435" stroke="#0c2435"></path><path d="M501 540L571 540L545 522Z" fill="#246688" stroke="#246688"></path><path d="M545 522L571 540L604 455Z" fill="#205a7a" stroke="#205a7a"></path><path d="M669 41L656 22L645 80Z" fill="#081a28" stroke="#081a28"></path><path d="M714 0L656 22L669 41Z" fill="#112e42" stroke="#112e42"></path><path d="M446 540L480 550L457 520Z" fill="#19435d" stroke="#19435d"></path><path d="M501 540L480 550L571 540Z" fill="#297ea6" stroke="#297ea6"></path><path d="M717 85L735 76L709 69Z" fill="#00101c" stroke="#00101c"></path><path d="M752 158L748 119L724 140Z" fill="#277297" stroke="#277297"></path><path d="M812 142L748 119L752 158Z" fill="#0c2435" stroke="#0c2435"></path><path d="M408 521L409 540L446 540Z" fill="#081a28" stroke="#081a28"></path><path d="M446 540L409 540L480 550Z" fill="#297ea6" stroke="#297ea6"></path><path d="M406 540L409 540L408 521Z" fill="#112e42" stroke="#112e42"></path><path d="M785 341L762 323L738 362Z" fill="#1d4e6b" stroke="#1d4e6b"></path><path d="M762 323L785 302L743 299Z" fill="#081a28" stroke="#081a28"></path><path d="M754 170L812 142L752 158Z" fill="#112e42" stroke="#112e42"></path><path d="M381 537L406 540L408 521Z" fill="#112e42" stroke="#112e42"></path><path d="M409 540L406 540L480 550Z" fill="#19435d" stroke="#19435d"></path><path d="M405 0L382 -8L386 0Z" fill="#297ea6" stroke="#297ea6"></path><path d="M339 0L335 6L389 33Z" fill="#19435d" stroke="#19435d"></path><path d="M433 0L382 -8L405 0Z" fill="#112e42" stroke="#112e42"></path><path d="M444 0L382 -8L433 0Z" fill="#246688" stroke="#246688"></path><path d="M634 -29L382 -8L444 0Z" fill="#15384f" stroke="#15384f"></path><path d="M656 22L628 0L606 70Z" fill="#19435d" stroke="#19435d"></path><path d="M553 0L634 -29L444 0Z" fill="#00101c" stroke="#00101c"></path><path d="M181 310L218 355L244 315Z" fill="#297ea6" stroke="#297ea6"></path><path d="M245 354L240 413L279 410Z" fill="#00101c" stroke="#00101c"></path><path d="M181 310L244 315L234 289Z" fill="#277297" stroke="#277297"></path><path d="M218 355L240 413L245 354Z" fill="#112e42" stroke="#112e42"></path><path d="M785 302L791 220L743 299Z" fill="#112e42" stroke="#112e42"></path><path d="M312 505L359 460L314 471Z" fill="#297ea6" stroke="#297ea6"></path><path d="M359 540L381 537L359 460Z" fill="#246688" stroke="#246688"></path><path d="M406 540L359 540L480 550Z" fill="#297ea6" stroke="#297ea6"></path><path d="M254 441L302 413L279 410Z" fill="#277297" stroke="#277297"></path><path d="M328 36L239 109L333 93Z" fill="#15384f" stroke="#15384f"></path><path d="M186 162L204 194L257 145Z" fill="#00101c" stroke="#00101c"></path><path d="M814 374L785 341L738 362Z" fill="#297ea6" stroke="#297ea6"></path><path d="M858 311L823 207L791 220Z" fill="#1d4e6b" stroke="#1d4e6b"></path><path d="M183 182L204 194L186 162Z" fill="#081a28" stroke="#081a28"></path><path d="M240 413L254 441L279 410Z" fill="#277297" stroke="#277297"></path><path d="M339 0L389 33L386 0Z" fill="#0c2435" stroke="#0c2435"></path><path d="M328 36L288 0L239 109Z" fill="#246688" stroke="#246688"></path><path d="M808 22L735 76L843 46Z" fill="#297ea6" stroke="#297ea6"></path><path d="M748 119L735 76L717 85Z" fill="#297ea6" stroke="#297ea6"></path><path d="M709 69L714 0L669 41Z" fill="#277297" stroke="#277297"></path><path d="M656 22L634 -29L628 0Z" fill="#1d4e6b" stroke="#1d4e6b"></path><path d="M693 540L743 441L697 443Z" fill="#112e42" stroke="#112e42"></path><path d="M697 443L743 441L726 362Z" fill="#15384f" stroke="#15384f"></path><path d="M254 481L312 505L287 475Z" fill="#112e42" stroke="#112e42"></path><path d="M287 475L312 505L314 471Z" fill="#246688" stroke="#246688"></path><path d="M382 -8L339 0L386 0Z" fill="#1d4e6b" stroke="#1d4e6b"></path><path d="M335 6L288 0L328 36Z" fill="#19435d" stroke="#19435d"></path><path d="M340 534L359 540L359 460Z" fill="#0c2435" stroke="#0c2435"></path><path d="M381 537L359 540L406 540Z" fill="#1d4e6b" stroke="#1d4e6b"></path><path d="M312 505L340 534L359 460Z" fill="#205a7a" stroke="#205a7a"></path><path d="M177 307L181 310L172 298Z" fill="#205a7a" stroke="#205a7a"></path><path d="M218 355L129 368L240 413Z" fill="#081a28" stroke="#081a28"></path><path d="M240 413L254 479L254 441Z" fill="#112e42" stroke="#112e42"></path><path d="M714 0L634 -29L656 22Z" fill="#0c2435" stroke="#0c2435"></path><path d="M628 0L634 -29L553 0Z" fill="#081a28" stroke="#081a28"></path><path d="M171 283L181 310L234 289Z" fill="#15384f" stroke="#15384f"></path><path d="M181 310L129 368L218 355Z" fill="#00101c" stroke="#00101c"></path><path d="M186 162L257 145L253 135Z" fill="#205a7a" stroke="#205a7a"></path><path d="M166 241L171 283L234 289Z" fill="#277297" stroke="#277297"></path><path d="M254 441L254 479L287 475Z" fill="#081a28" stroke="#081a28"></path><path d="M312 505L326 540L340 534Z" fill="#277297" stroke="#277297"></path><path d="M254 481L208 540L224 539Z" fill="#246688" stroke="#246688"></path><path d="M166 241L234 289L204 194Z" fill="#081a28" stroke="#081a28"></path><path d="M184 133L253 135L239 109Z" fill="#277297" stroke="#277297"></path><path d="M184 133L186 162L253 135Z" fill="#19435d" stroke="#19435d"></path><path d="M243 540L326 540L312 505Z" fill="#1d4e6b" stroke="#1d4e6b"></path><path d="M340 534L326 540L359 540Z" fill="#081a28" stroke="#081a28"></path><path d="M359 540L326 540L480 550Z" fill="#246688" stroke="#246688"></path><path d="M171 283L172 298L181 310Z" fill="#00101c" stroke="#00101c"></path><path d="M243 540L254 481L224 539Z" fill="#246688" stroke="#246688"></path><path d="M254 479L92 481L208 540Z" fill="#277297" stroke="#277297"></path><path d="M254 479L254 481L287 475Z" fill="#297ea6" stroke="#297ea6"></path><path d="M163 185L166 241L183 182Z" fill="#0c2435" stroke="#0c2435"></path><path d="M183 182L166 241L204 194Z" fill="#205a7a" stroke="#205a7a"></path><path d="M105 356L177 307L172 298Z" fill="#19435d" stroke="#19435d"></path><path d="M858 311L791 220L785 302Z" fill="#112e42" stroke="#112e42"></path><path d="M791 220L823 207L754 170Z" fill="#297ea6" stroke="#297ea6"></path><path d="M645 569L604 455L571 540Z" fill="#246688" stroke="#246688"></path><path d="M645 569L681 540L604 455Z" fill="#246688" stroke="#246688"></path><path d="M382 -8L288 0L339 0Z" fill="#19435d" stroke="#19435d"></path><path d="M339 0L288 0L335 6Z" fill="#277297" stroke="#277297"></path><path d="M806 427L814 374L738 362Z" fill="#297ea6" stroke="#297ea6"></path><path d="M785 341L858 311L785 302Z" fill="#00101c" stroke="#00101c"></path><path d="M806 427L738 362L743 441Z" fill="#277297" stroke="#277297"></path><path d="M823 207L812 142L754 170Z" fill="#15384f" stroke="#15384f"></path><path d="M736 0L714 0L709 69Z" fill="#205a7a" stroke="#205a7a"></path><path d="M170 76L184 133L239 109Z" fill="#1d4e6b" stroke="#1d4e6b"></path><path d="M186 162L163 185L183 182Z" fill="#277297" stroke="#277297"></path><path d="M670 562L689 540L681 540Z" fill="#15384f" stroke="#15384f"></path><path d="M681 540L689 540L697 443Z" fill="#112e42" stroke="#112e42"></path><path d="M670 562L693 540L689 540Z" fill="#277297" stroke="#277297"></path><path d="M689 540L693 540L697 443Z" fill="#15384f" stroke="#15384f"></path><path d="M736 0L709 69L735 76Z" fill="#246688" stroke="#246688"></path><path d="M243 540L645 569L480 550Z" fill="#297ea6" stroke="#297ea6"></path><path d="M480 550L645 569L571 540Z" fill="#081a28" stroke="#081a28"></path><path d="M148 140L163 185L186 162Z" fill="#1d4e6b" stroke="#1d4e6b"></path><path d="M645 569L670 562L681 540Z" fill="#277297" stroke="#277297"></path><path d="M835 436L829 364L814 374Z" fill="#15384f" stroke="#15384f"></path><path d="M814 374L829 364L785 341Z" fill="#1d4e6b" stroke="#1d4e6b"></path><path d="M809 473L806 427L743 441Z" fill="#15384f" stroke="#15384f"></path><path d="M748 0L736 0L735 76Z" fill="#00101c" stroke="#00101c"></path><path d="M714 0L736 0L634 -29Z" fill="#0c2435" stroke="#0c2435"></path><path d="M823 207L842 174L812 142Z" fill="#112e42" stroke="#112e42"></path><path d="M808 22L748 0L735 76Z" fill="#15384f" stroke="#15384f"></path><path d="M888 214L842 174L823 207Z" fill="#297ea6" stroke="#297ea6"></path><path d="M735 76L748 119L843 46Z" fill="#00101c" stroke="#00101c"></path><path d="M736 0L748 0L634 -29Z" fill="#081a28" stroke="#081a28"></path><path d="M876 335L858 311L829 364Z" fill="#1d4e6b" stroke="#1d4e6b"></path><path d="M829 364L858 311L785 341Z" fill="#15384f" stroke="#15384f"></path><path d="M142 127L148 140L184 133Z" fill="#15384f" stroke="#15384f"></path><path d="M184 133L148 140L186 162Z" fill="#15384f" stroke="#15384f"></path><path d="M163 185L107 221L166 241Z" fill="#277297" stroke="#277297"></path><path d="M99 272L172 298L171 283Z" fill="#277297" stroke="#277297"></path><path d="M288 0L215 22L239 109Z" fill="#081a28" stroke="#081a28"></path><path d="M148 140L135 168L163 185Z" fill="#15384f" stroke="#15384f"></path><path d="M198 30L170 76L239 109Z" fill="#205a7a" stroke="#205a7a"></path><path d="M148 140L122 122L135 168Z" fill="#19435d" stroke="#19435d"></path><path d="M254 481L243 540L312 505Z" fill="#15384f" stroke="#15384f"></path><path d="M326 540L243 540L480 550Z" fill="#277297" stroke="#277297"></path><path d="M129 368L181 310L177 307Z" fill="#277297" stroke="#277297"></path><path d="M753 540L743 441L693 540Z" fill="#277297" stroke="#277297"></path><path d="M753 540L809 473L743 441Z" fill="#0c2435" stroke="#0c2435"></path><path d="M806 427L835 436L814 374Z" fill="#15384f" stroke="#15384f"></path><path d="M215 22L198 30L239 109Z" fill="#246688" stroke="#246688"></path><path d="M670 562L753 540L693 540Z" fill="#277297" stroke="#277297"></path><path d="M787 540L753 540L670 562Z" fill="#0c2435" stroke="#0c2435"></path><path d="M160 77L142 127L184 133Z" fill="#205a7a" stroke="#205a7a"></path><path d="M809 473L835 436L806 427Z" fill="#112e42" stroke="#112e42"></path><path d="M99 272L171 283L166 241Z" fill="#081a28" stroke="#081a28"></path><path d="M105 356L129 368L177 307Z" fill="#1d4e6b" stroke="#1d4e6b"></path><path d="M876 335L878 289L858 311Z" fill="#297ea6" stroke="#297ea6"></path><path d="M858 311L878 289L823 207Z" fill="#081a28" stroke="#081a28"></path><path d="M198 30L160 77L170 76Z" fill="#297ea6" stroke="#297ea6"></path><path d="M170 76L160 77L184 133Z" fill="#00101c" stroke="#00101c"></path><path d="M873 358L876 335L829 364Z" fill="#297ea6" stroke="#297ea6"></path><path d="M208 540L254 481L254 479Z" fill="#297ea6" stroke="#297ea6"></path><path d="M243 540L208 540L645 569Z" fill="#246688" stroke="#246688"></path><path d="M835 436L873 358L829 364Z" fill="#15384f" stroke="#15384f"></path><path d="M922 175L865 131L842 174Z" fill="#1d4e6b" stroke="#1d4e6b"></path><path d="M842 174L865 131L812 142Z" fill="#246688" stroke="#246688"></path><path d="M104 173L107 221L135 168Z" fill="#00101c" stroke="#00101c"></path><path d="M135 168L107 221L163 185Z" fill="#297ea6" stroke="#297ea6"></path><path d="M122 122L148 140L142 127Z" fill="#19435d" stroke="#19435d"></path><path d="M843 46L748 119L812 142Z" fill="#277297" stroke="#277297"></path><path d="M897 276L888 214L878 289Z" fill="#205a7a" stroke="#205a7a"></path><path d="M878 289L888 214L823 207Z" fill="#19435d" stroke="#19435d"></path><path d="M922 175L867 119L865 131Z" fill="#246688" stroke="#246688"></path><path d="M865 131L867 119L812 142Z" fill="#15384f" stroke="#15384f"></path><path d="M97 243L99 272L166 241Z" fill="#0c2435" stroke="#0c2435"></path><path d="M92 127L122 122L52 36Z" fill="#246688" stroke="#246688"></path><path d="M160 77L122 122L142 127Z" fill="#112e42" stroke="#112e42"></path><path d="M107 221L97 243L166 241Z" fill="#081a28" stroke="#081a28"></path><path d="M18 254L97 243L107 221Z" fill="#297ea6" stroke="#297ea6"></path><path d="M92 481L254 479L240 413Z" fill="#1d4e6b" stroke="#1d4e6b"></path><path d="M224 539L208 540L243 540Z" fill="#19435d" stroke="#19435d"></path><path d="M876 335L897 276L878 289Z" fill="#081a28" stroke="#081a28"></path><path d="M960 312L897 276L960 315Z" fill="#297ea6" stroke="#297ea6"></path><path d="M122 122L104 173L135 168Z" fill="#0c2435" stroke="#0c2435"></path><path d="M753 540L796 531L809 473Z" fill="#1d4e6b" stroke="#1d4e6b"></path><path d="M809 473L859 471L835 436Z" fill="#277297" stroke="#277297"></path><path d="M835 436L901 448L873 358Z" fill="#297ea6" stroke="#297ea6"></path><path d="M856 540L787 540L860 546Z" fill="#277297" stroke="#277297"></path><path d="M99 272L105 356L172 298Z" fill="#246688" stroke="#246688"></path><path d="M129 368L92 481L240 413Z" fill="#297ea6" stroke="#297ea6"></path><path d="M787 540L796 531L753 540Z" fill="#246688" stroke="#246688"></path><path d="M18 254L92 260L97 243Z" fill="#1d4e6b" stroke="#1d4e6b"></path><path d="M97 243L92 260L99 272Z" fill="#0c2435" stroke="#0c2435"></path><path d="M57 323L74 354L105 356Z" fill="#15384f" stroke="#15384f"></path><path d="M198 30L161 0L160 77Z" fill="#205a7a" stroke="#205a7a"></path><path d="M215 22L183 0L198 30Z" fill="#1d4e6b" stroke="#1d4e6b"></path><path d="M288 0L183 0L215 22Z" fill="#1d4e6b" stroke="#1d4e6b"></path><path d="M382 -8L183 0L288 0Z" fill="#0c2435" stroke="#0c2435"></path><path d="M161 0L183 0L382 -8Z" fill="#246688" stroke="#246688"></path><path d="M867 119L843 46L812 142Z" fill="#1d4e6b" stroke="#1d4e6b"></path><path d="M820 -7L812 0L808 22Z" fill="#297ea6" stroke="#297ea6"></path><path d="M808 22L812 0L748 0Z" fill="#0c2435" stroke="#0c2435"></path><path d="M748 0L820 -7L634 -29Z" fill="#246688" stroke="#246688"></path><path d="M879 463L859 471L926 500Z" fill="#00101c" stroke="#00101c"></path><path d="M856 540L859 471L809 473Z" fill="#205a7a" stroke="#205a7a"></path><path d="M960 315L897 276L876 335Z" fill="#297ea6" stroke="#297ea6"></path><path d="M843 46L820 -7L808 22Z" fill="#081a28" stroke="#081a28"></path><path d="M812 0L820 -7L748 0Z" fill="#112e42" stroke="#112e42"></path><path d="M88 0L161 0L382 -8Z" fill="#1d4e6b" stroke="#1d4e6b"></path><path d="M183 0L161 0L198 30Z" fill="#19435d" stroke="#19435d"></path><path d="M122 122L92 127L104 173Z" fill="#0c2435" stroke="#0c2435"></path><path d="M888 214L922 175L842 174Z" fill="#246688" stroke="#246688"></path><path d="M937 64L882 0L843 46Z" fill="#205a7a" stroke="#205a7a"></path><path d="M843 46L882 0L820 -7Z" fill="#0c2435" stroke="#0c2435"></path><path d="M897 276L917 196L888 214Z" fill="#297ea6" stroke="#297ea6"></path><path d="M960 210L917 196L897 276Z" fill="#15384f" stroke="#15384f"></path><path d="M79 125L92 127L52 36Z" fill="#081a28" stroke="#081a28"></path><path d="M104 173L65 154L107 221Z" fill="#297ea6" stroke="#297ea6"></path><path d="M57 323L99 272L92 260Z" fill="#205a7a" stroke="#205a7a"></path><path d="M57 323L105 356L99 272Z" fill="#081a28" stroke="#081a28"></path><path d="M105 356L81 415L129 368Z" fill="#205a7a" stroke="#205a7a"></path><path d="M856 540L809 473L796 531Z" fill="#297ea6" stroke="#297ea6"></path><path d="M859 471L879 463L835 436Z" fill="#205a7a" stroke="#205a7a"></path><path d="M960 210L922 175L917 196Z" fill="#112e42" stroke="#112e42"></path><path d="M917 196L922 175L888 214Z" fill="#19435d" stroke="#19435d"></path><path d="M79 125L81 130L92 127Z" fill="#00101c" stroke="#00101c"></path><path d="M92 127L81 130L104 173Z" fill="#277297" stroke="#277297"></path><path d="M52 36L122 122L160 77Z" fill="#00101c" stroke="#00101c"></path><path d="M18 254L57 323L92 260Z" fill="#205a7a" stroke="#205a7a"></path><path d="M74 354L81 415L105 356Z" fill="#205a7a" stroke="#205a7a"></path><path d="M65 154L104 173L81 130Z" fill="#1d4e6b" stroke="#1d4e6b"></path><path d="M74 354L0 388L81 415Z" fill="#112e42" stroke="#112e42"></path><path d="M79 125L65 154L81 130Z" fill="#112e42" stroke="#112e42"></path><path d="M926 500L901 448L879 463Z" fill="#277297" stroke="#277297"></path><path d="M879 463L901 448L835 436Z" fill="#15384f" stroke="#15384f"></path><path d="M18 254L49 336L57 323Z" fill="#1d4e6b" stroke="#1d4e6b"></path><path d="M57 323L49 336L74 354Z" fill="#15384f" stroke="#15384f"></path><path d="M860 546L787 540L670 562Z" fill="#112e42" stroke="#112e42"></path><path d="M787 540L856 540L796 531Z" fill="#15384f" stroke="#15384f"></path><path d="M71 447L92 481L81 415Z" fill="#205a7a" stroke="#205a7a"></path><path d="M81 415L92 481L129 368Z" fill="#00101c" stroke="#00101c"></path><path d="M960 576L860 546L670 562Z" fill="#1d4e6b" stroke="#1d4e6b"></path><path d="M856 540L926 500L859 471Z" fill="#246688" stroke="#246688"></path><path d="M0 414L71 447L81 415Z" fill="#246688" stroke="#246688"></path><path d="M44 505L122 540L92 481Z" fill="#1d4e6b" stroke="#1d4e6b"></path><path d="M92 481L122 540L208 540Z" fill="#0c2435" stroke="#0c2435"></path><path d="M208 540L122 540L645 569Z" fill="#205a7a" stroke="#205a7a"></path><path d="M937 64L843 46L867 119Z" fill="#1d4e6b" stroke="#1d4e6b"></path><path d="M820 -7L1006 0L634 -29Z" fill="#112e42" stroke="#112e42"></path><path d="M876 335L960 362L960 335Z" fill="#081a28" stroke="#081a28"></path><path d="M960 315L876 335L960 335Z" fill="#00101c" stroke="#00101c"></path><path d="M922 175L960 131L867 119Z" fill="#081a28" stroke="#081a28"></path><path d="M960 312L960 210L897 276Z" fill="#0c2435" stroke="#0c2435"></path><path d="M876 335L873 358L960 362Z" fill="#00101c" stroke="#00101c"></path><path d="M960 362L873 358L960 416Z" fill="#205a7a" stroke="#205a7a"></path><path d="M960 416L873 358L901 448Z" fill="#19435d" stroke="#19435d"></path><path d="M65 154L18 254L107 221Z" fill="#1d4e6b" stroke="#1d4e6b"></path><path d="M50 483L55 480L71 447Z" fill="#297ea6" stroke="#297ea6"></path><path d="M960 210L960 131L922 175Z" fill="#277297" stroke="#277297"></path><path d="M960 102L937 64L867 119Z" fill="#00101c" stroke="#00101c"></path><path d="M161 0L88 0L160 77Z" fill="#15384f" stroke="#15384f"></path><path d="M79 125L37 95L65 154Z" fill="#112e42" stroke="#112e42"></path><path d="M65 154L0 243L18 254Z" fill="#246688" stroke="#246688"></path><path d="M634 -29L88 0L382 -8Z" fill="#19435d" stroke="#19435d"></path><path d="M975 436L960 416L901 448Z" fill="#1d4e6b" stroke="#1d4e6b"></path><path d="M52 36L37 95L79 125Z" fill="#112e42" stroke="#112e42"></path><path d="M960 131L960 102L867 119Z" fill="#112e42" stroke="#112e42"></path><path d="M860 546L926 500L856 540Z" fill="#205a7a" stroke="#205a7a"></path><path d="M50 483L71 447L0 414Z" fill="#205a7a" stroke="#205a7a"></path><path d="M71 447L55 480L92 481Z" fill="#112e42" stroke="#112e42"></path><path d="M960 102L960 86L937 64Z" fill="#205a7a" stroke="#205a7a"></path><path d="M937 64L960 0L882 0Z" fill="#00101c" stroke="#00101c"></path><path d="M0 147L0 243L65 154Z" fill="#00101c" stroke="#00101c"></path><path d="M18 254L0 353L49 336Z" fill="#0c2435" stroke="#0c2435"></path><path d="M0 388L74 354L49 336Z" fill="#246688" stroke="#246688"></path><path d="M55 480L44 505L92 481Z" fill="#19435d" stroke="#19435d"></path><path d="M88 0L52 36L160 77Z" fill="#1d4e6b" stroke="#1d4e6b"></path><path d="M0 243L0 353L18 254Z" fill="#277297" stroke="#277297"></path><path d="M634 -29L65 0L88 0Z" fill="#0c2435" stroke="#0c2435"></path><path d="M88 0L65 0L52 36Z" fill="#0c2435" stroke="#0c2435"></path><path d="M0 353L0 354L49 336Z" fill="#277297" stroke="#277297"></path><path d="M960 497L975 436L901 448Z" fill="#205a7a" stroke="#205a7a"></path><path d="M960 416L975 436L960 362Z" fill="#0c2435" stroke="#0c2435"></path><path d="M960 362L975 436L960 335Z" fill="#1d4e6b" stroke="#1d4e6b"></path><path d="M960 335L975 436L960 315Z" fill="#1d4e6b" stroke="#1d4e6b"></path><path d="M960 315L975 436L960 312Z" fill="#15384f" stroke="#15384f"></path><path d="M960 312L1010 50L960 210Z" fill="#1d4e6b" stroke="#1d4e6b"></path><path d="M960 210L1010 50L960 131Z" fill="#205a7a" stroke="#205a7a"></path><path d="M960 131L1010 50L960 102Z" fill="#00101c" stroke="#00101c"></path><path d="M960 102L1010 50L960 86Z" fill="#205a7a" stroke="#205a7a"></path><path d="M0 134L0 147L65 154Z" fill="#205a7a" stroke="#205a7a"></path><path d="M0 134L65 154L37 95Z" fill="#297ea6" stroke="#297ea6"></path><path d="M0 134L37 95L0 98Z" fill="#15384f" stroke="#15384f"></path><path d="M0 354L0 388L49 336Z" fill="#15384f" stroke="#15384f"></path><path d="M0 98L37 95L0 87Z" fill="#297ea6" stroke="#297ea6"></path><path d="M0 524L44 505L50 483Z" fill="#246688" stroke="#246688"></path><path d="M50 483L44 505L55 480Z" fill="#0c2435" stroke="#0c2435"></path><path d="M860 546L937 536L926 500Z" fill="#15384f" stroke="#15384f"></path><path d="M926 500L960 497L901 448Z" fill="#205a7a" stroke="#205a7a"></path><path d="M0 388L0 414L81 415Z" fill="#112e42" stroke="#112e42"></path><path d="M937 536L960 497L926 500Z" fill="#246688" stroke="#246688"></path><path d="M0 87L37 95L0 54Z" fill="#081a28" stroke="#081a28"></path><path d="M0 54L37 95L52 36Z" fill="#297ea6" stroke="#297ea6"></path><path d="M1010 50L960 0L937 64Z" fill="#081a28" stroke="#081a28"></path><path d="M882 0L960 0L820 -7Z" fill="#15384f" stroke="#15384f"></path><path d="M1010 50L937 64L960 86Z" fill="#19435d" stroke="#19435d"></path><path d="M17 0L0 54L52 36Z" fill="#1d4e6b" stroke="#1d4e6b"></path><path d="M960 576L960 540L937 536Z" fill="#246688" stroke="#246688"></path><path d="M937 536L960 540L960 497Z" fill="#15384f" stroke="#15384f"></path><path d="M960 497L994 540L975 436Z" fill="#246688" stroke="#246688"></path><path d="M960 576L937 536L860 546Z" fill="#205a7a" stroke="#205a7a"></path><path d="M634 -29L17 0L65 0Z" fill="#297ea6" stroke="#297ea6"></path><path d="M65 0L17 0L52 36Z" fill="#00101c" stroke="#00101c"></path><path d="M975 436L1010 50L960 312Z" fill="#205a7a" stroke="#205a7a"></path><path d="M645 569L960 576L670 562Z" fill="#205a7a" stroke="#205a7a"></path><path d="M960 540L994 540L960 497Z" fill="#19435d" stroke="#19435d"></path><path d="M0 524L9 540L44 505Z" fill="#297ea6" stroke="#297ea6"></path><path d="M44 505L9 540L122 540Z" fill="#112e42" stroke="#112e42"></path><path d="M122 540L9 540L645 569Z" fill="#15384f" stroke="#15384f"></path><path d="M0 414L0 524L50 483Z" fill="#297ea6" stroke="#297ea6"></path><path d="M634 -29L0 0L17 0Z" fill="#246688" stroke="#246688"></path><path d="M17 0L0 0L0 54Z" fill="#0c2435" stroke="#0c2435"></path><path d="M0 524L8 540L9 540Z" fill="#246688" stroke="#246688"></path><path d="M9 540L8 540L645 569Z" fill="#19435d" stroke="#19435d"></path><path d="M0 524L0 540L8 540Z" fill="#19435d" stroke="#19435d"></path><path d="M8 540L0 540L645 569Z" fill="#0c2435" stroke="#0c2435"></path><path d="M960 576L994 540L960 540Z" fill="#081a28" stroke="#081a28"></path><path d="M975 436L994 540L1010 50Z" fill="#0c2435" stroke="#0c2435"></path><path d="M1010 50L1006 0L960 0Z" fill="#15384f" stroke="#15384f"></path><path d="M960 0L1006 0L820 -7Z" fill="#277297" stroke="#277297"></path><path d="M0 414L-9 539L0 524Z" fill="#15384f" stroke="#15384f"></path><path d="M0 524L-9 539L0 540Z" fill="#0c2435" stroke="#0c2435"></path><path d="M0 388L-9 539L0 414Z" fill="#112e42" stroke="#112e42"></path><path d="M0 354L-9 539L0 388Z" fill="#297ea6" stroke="#297ea6"></path><path d="M0 353L-9 539L0 354Z" fill="#246688" stroke="#246688"></path><path d="M0 243L-9 539L0 353Z" fill="#277297" stroke="#277297"></path><path d="M0 147L-9 539L0 243Z" fill="#297ea6" stroke="#297ea6"></path><path d="M0 134L-9 539L0 147Z" fill="#205a7a" stroke="#205a7a"></path><path d="M0 98L-9 539L0 134Z" fill="#205a7a" stroke="#205a7a"></path><path d="M0 87L-9 539L0 98Z" fill="#112e42" stroke="#112e42"></path><path d="M0 54L-9 539L0 87Z" fill="#081a28" stroke="#081a28"></path><path d="M0 0L-9 539L0 54Z" fill="#1d4e6b" stroke="#1d4e6b"></path></g></svg>